<svg width="32" height="32" viewBox="0 0 32 32" fill="none" xmlns="http://www.w3.org/2000/svg" shape-rendering="crispEdges">
  <!-- 바깥 테두리 (Dark Charcoal) -->
  <path d="M10 2H22V4H26V8H30V24H26V28H22V30H10V28H6V24H2V8H6V4H10V2Z" fill="#374151"/>
  <!-- 상단 코랄 레드 (#e6684d) -->
  <path d="M10 4H22V6H26V14H6V6H10V4Z" fill="#e6684d"/>
  <!-- 하단 화이트 영역 -->
  <path d="M6 18H26V24H22V28H10V24H6V18Z" fill="#F8FAFC"/>
  <!-- 중앙 가로선 -->
  <rect x="2" y="14" width="28" height="4" fill="#374151"/>
  <!-- 중앙 버튼 뭉치 -->
  <rect x="11" y="11" width="10" height="10" fill="#374151"/>
  <rect x="13" y="13" width="6" height="6" fill="#F8FAFC"/>
  <rect x="15" y="15" width="2" height="2" fill="#374151"/>
  <!-- 왼쪽 상단 하이라이트 (반짝임) -->
  <rect x="8" y="8" width="4" height="4" fill="#FFFFFF" opacity="0.4"/>
</svg>